#!OML:ASF I:\salsa\salsa 7_09\Patient 1\Session 1\dancermale.ASF
:FULLY-SPECIFIED
:DEGREES
1659
root 13.7587 17.4723 -2.14199 -390.806 266.131 34.6057
lowerback -4.42539 -0.901007 2.49029
upperback -0.963721 -1.33249 0.138392
thorax 1.43682 -0.663438 -1.32821
lowerneck -4.38345 2.42646 3.37627
upperneck 16.7185 3.43862 -4.96775
head 5.90903 1.39569 -1.92106
rclavicle 4.14303e-015 5.76476e-015
rhumerus -42.6355 7.06794 -96.4476
rradius 95.5006
rwrist -29.0623
rhand 167.347 176.275
rfingers 7.12502
rthumb 13.4277 -33.2719
lclavicle 4.14303e-015 5.76476e-015
lhumerus -27.4308 -6.86817 95.1781
lradius 70.667
lwrist 60.5507
lhand -24.7616 56.3128
lfingers 7.12502
lthumb 1.74186 446.285
rfemur -4.71585 4.03661 22.8077
rtibia 9.56108
rfoot -11.85 -12.1007
rtoes 0.202856
lfemur -15.8747 6.13811 -13.8764
ltibia 37.5031
lfoot -18.5735 9.63172
ltoes -7.2081
1660
root 13.7913 17.4669 -2.21466 -392.235 265.609 36.1322
lowerback -4.18685 -0.805144 2.71716
upperback -0.91806 -1.20682 0.114572
thorax 1.3502 -0.60018 -1.46917
lowerneck -4.3732 2.41596 3.63645
upperneck 16.309 3.3669 -4.74694
head 5.77698 1.40411 -1.89704
rclavicle 1.03783e-014 -1.74931e-014
rhumerus -42.3512 8.077 -98.4725
rradius 93.8287
rwrist -29.1699
rhand 165.907 176.665
rfingers 7.12502
rthumb 12.039 -32.9691
lclavicle 1.03783e-014 -1.74931e-014
lhumerus -25.9635 -6.64125 93.1217
lradius 69.1791
lwrist 58.4567
lhand -24.3173 55.2866
lfingers 7.12502
lthumb 2.1709 445.255
rfemur -4.96338 3.70021 23.482
rtibia 9.55867
rfoot -11.7393 -11.3256
rtoes 0.754908
lfemur -16.5825 6.90323 -13.098
ltibia 38.6624
lfoot -18.6709 9.31027
ltoes -7.2572
1661
root 13.8233 17.4628 -2.28529 -391.818 265.199 35.8723
lowerback -3.96642 -0.779384 2.58439
upperback -0.907349 -1.16062 0.178541
thorax 1.24402 -0.578656 -1.32303
lowerneck -4.50355 2.49488 3.72763
upperneck 16.034 3.42844 -4.49098
head 5.7142 1.46422 -1.8245
rclavicle 1.36245e-014 -1.11319e-014
rhumerus -41.9 9.05138 -100.365
rradius 91.9136
rwrist -28.5425
rhand 164.104 176.871
rfingers 7.12502
rthumb 10.3008 -32.8569
lclavicle 1.36245e-014 -1.11319e-014
lhumerus -24.6358 -6.33978 91.1565
lradius 68.22
lwrist 56.7551
lhand -23.9543 54.5127
lfingers 7.12502
lthumb 2.52149 444.477
rfemur -5.26865 3.43821 23.9628
rtibia 9.54626
rfoot -11.5886 -10.6954
rtoes 0.724001
lfemur -17.1464 7.594 -12.569
ltibia 39.2554
lfoot -18.4801 9.33849
ltoes -9.17888
1662
root 13.8464 17.4616 -2.3503 -388.862 264.869 32.9753
lowerback -3.82271 -0.781688 2.08463
upperback -0.78619 -1.1412 0.292618
thorax 1.30099 -0.568172 -0.923963
lowerneck -4.69684 2.60638 3.72501
upperneck 15.6634 3.56491 -4.3767
head 5.63605 1.5463 -1.77542
rclavicle -1.78875e-014 0
rhumerus -41.1128 10.0842 -102.028
rradius 89.7556
rwrist -26.8273
rhand 162.125 177.142
rfingers 7.12502
rthumb 8.39062 -32.6713
lclavicle -1.78875e-014 0
lhumerus -23.3429 -6.03758 89.2817
lradius 67.8414
lwrist 55.5991
lhand -23.7623 53.8746
lfingers 7.12502
lthumb 2.70691 443.837
rfemur -5.41804 3.15065 24.1256
rtibia 9.51286
rfoot -11.4502 -10.0572
rtoes 0.476259
lfemur -17.2639 8.0825 -12.3615
ltibia 39.2545
lfoot -18.2695 9.57738
ltoes -10.6181
1663
root 13.8651 17.4656 -2.41146 -386.164 264.496 30.47
lowerback -3.90096 -0.7588 1.56205
upperback -0.654491 -1.09526 0.483509
thorax 1.4949 -0.544856 -0.435938
lowerneck -4.89182 2.74869 3.63725
upperneck 15.25 3.76295 -4.33867
head 5.547 1.64872 -1.73236
rclavicle 5.31128e-016 -2.78299e-015
rhumerus -40.1714 11.063 -103.43
rradius 87.5532
rwrist -24.5758
rhand 160.05 177.538
rfingers 7.12502
rthumb 6.38845 -32.3459
lclavicle 5.31128e-016 -2.78299e-015
lhumerus -22.1059 -5.77079 87.5643
lradius 67.8307
lwrist 54.6189
lhand -23.2794 53.8953
lfingers 7.12502
lthumb 3.17327 443.851
rfemur -5.68021 2.99449 24.3018
rtibia 9.46205
rfoot -11.3243 -9.46459
rtoes 0.564247
lfemur -17.2662 8.26464 -12.18
ltibia 38.9451
lfoot -18.302 9.93881
ltoes -10.1663
1664
root 13.8854 17.4713 -2.47077 -383.409 264.056 28.0108
lowerback -3.97062 -0.694696 0.961469
upperback -0.662235 -0.991567 0.751381
thorax 1.54283 -0.496906 0.17937
lowerneck -5.09302 2.83988 3.61232
upperneck 15.046 3.92009 -4.55552
head 5.52811 1.71229 -1.7829
rclavicle -1.88939e-014 4.37326e-015
rhumerus -39.3421 11.8061 -104.516
rradius 85.3759
rwrist -22.6411
rhand 158.226 177.988
rfingers 7.12502
rthumb 4.62671 -31.9411
lclavicle -1.88939e-014 4.37326e-015
lhumerus -21.1689 -5.55548 86.0761
lradius 68.0703
lwrist 53.6245
lhand -22.3646 54.3416
lfingers 7.12502
lthumb 4.05668 444.283
rfemur -6.07099 2.91659 24.4855
rtibia 9.41222
rfoot -11.1298 -8.83885
rtoes 0.376798
lfemur -17.1818 8.26692 -12.0499
ltibia 38.2797
lfoot -18.3482 10.5786
ltoes -9.80477
